<?xml version="1.0" encoding="UTF-8" standalone="no"?>
<!DOCTYPE svg PUBLIC "-//W3C//DTD SVG 1.1//EN"
 "http://www.w3.org/Graphics/SVG/1.1/DTD/svg11.dtd">
<!-- Generated by graphviz version 2.38.0 (20140413.2041)
 -->
<!-- Title: unnamed Pages: 1 -->
<svg width="344pt" height="264pt"
 viewBox="0.00 0.00 343.50 264.00" xmlns="http://www.w3.org/2000/svg" xmlns:xlink="http://www.w3.org/1999/xlink">
<g id="graph0" class="graph" transform="scale(1 1) rotate(0) translate(4 260)">
<title>unnamed</title>
<polygon fill="white" stroke="none" points="-4,4 -4,-260 339.5,-260 339.5,4 -4,4"/>
<!-- Node0x5604d830c918 -->
<g id="node1" class="node"><title>Node0x5604d830c918</title>
<polygon fill="none" stroke="black" points="59.5,-219.5 59.5,-255.5 163.5,-255.5 163.5,-219.5 59.5,-219.5"/>
<text text-anchor="middle" x="111.5" y="-233.8" font-family="Times,serif" font-size="14.00">CompoundStmt</text>
</g>
<!-- Node0x5604d830c858 -->
<g id="node2" class="node"><title>Node0x5604d830c858</title>
<polygon fill="none" stroke="black" points="25.5,-146.5 25.5,-182.5 93.5,-182.5 93.5,-146.5 25.5,-146.5"/>
<text text-anchor="middle" x="59.5" y="-160.8" font-family="Times,serif" font-size="14.00">DeclStmt</text>
</g>
<!-- Node0x5604d830c918&#45;&gt;Node0x5604d830c858 -->
<g id="edge1" class="edge"><title>Node0x5604d830c918&#45;&gt;Node0x5604d830c858</title>
<path fill="none" stroke="black" d="M98.9123,-219.313C92.6527,-210.766 84.965,-200.269 78.0464,-190.823"/>
<polygon fill="black" stroke="black" points="80.7043,-188.528 71.9718,-182.529 75.0569,-192.665 80.7043,-188.528"/>
</g>
<!-- Node0x5604d830c8f8 -->
<g id="node3" class="node"><title>Node0x5604d830c8f8</title>
<polygon fill="none" stroke="black" points="126,-146.5 126,-182.5 203,-182.5 203,-146.5 126,-146.5"/>
<text text-anchor="middle" x="164.5" y="-160.8" font-family="Times,serif" font-size="14.00">WhileStmt</text>
</g>
<!-- Node0x5604d830c918&#45;&gt;Node0x5604d830c8f8 -->
<g id="edge2" class="edge"><title>Node0x5604d830c918&#45;&gt;Node0x5604d830c8f8</title>
<path fill="none" stroke="black" d="M124.33,-219.313C130.71,-210.766 138.545,-200.269 145.597,-190.823"/>
<polygon fill="black" stroke="black" points="148.611,-192.636 151.788,-182.529 143.002,-188.449 148.611,-192.636"/>
</g>
<!-- Node0x5604d830c838 -->
<g id="node4" class="node"><title>Node0x5604d830c838</title>
<polygon fill="none" stroke="black" points="0,-73.5 0,-109.5 91,-109.5 91,-73.5 0,-73.5"/>
<text text-anchor="middle" x="45.5" y="-87.8" font-family="Times,serif" font-size="14.00">IntegerLiteral</text>
</g>
<!-- Node0x5604d830c858&#45;&gt;Node0x5604d830c838 -->
<g id="edge3" class="edge"><title>Node0x5604d830c858&#45;&gt;Node0x5604d830c838</title>
<path fill="none" stroke="black" d="M56.111,-146.313C54.5289,-138.289 52.608,-128.547 50.8376,-119.569"/>
<polygon fill="black" stroke="black" points="54.2263,-118.663 48.8578,-109.529 47.3586,-120.017 54.2263,-118.663"/>
</g>
<!-- Node0x5604d830c898 -->
<g id="node5" class="node"><title>Node0x5604d830c898</title>
<polygon fill="none" stroke="black" points="109.5,-73.5 109.5,-109.5 219.5,-109.5 219.5,-73.5 109.5,-73.5"/>
<text text-anchor="middle" x="164.5" y="-87.8" font-family="Times,serif" font-size="14.00">ImplicitCastExpr</text>
</g>
<!-- Node0x5604d830c8f8&#45;&gt;Node0x5604d830c898 -->
<g id="edge4" class="edge"><title>Node0x5604d830c8f8&#45;&gt;Node0x5604d830c898</title>
<path fill="none" stroke="black" d="M164.5,-146.313C164.5,-138.289 164.5,-128.547 164.5,-119.569"/>
<polygon fill="black" stroke="black" points="168,-119.529 164.5,-109.529 161,-119.529 168,-119.529"/>
</g>
<!-- Node0x5604d830c8d8 -->
<g id="node6" class="node"><title>Node0x5604d830c8d8</title>
<polygon fill="none" stroke="black" points="237.5,-73.5 237.5,-109.5 335.5,-109.5 335.5,-73.5 237.5,-73.5"/>
<text text-anchor="middle" x="286.5" y="-87.8" font-family="Times,serif" font-size="14.00">UnaryOperator</text>
</g>
<!-- Node0x5604d830c8f8&#45;&gt;Node0x5604d830c8d8 -->
<g id="edge5" class="edge"><title>Node0x5604d830c8f8&#45;&gt;Node0x5604d830c8d8</title>
<path fill="none" stroke="black" d="M193.722,-146.494C210.05,-136.991 230.593,-125.036 248.195,-114.792"/>
<polygon fill="black" stroke="black" points="250.211,-117.669 257.094,-109.614 246.69,-111.618 250.211,-117.669"/>
</g>
<!-- Node0x5604d830c870 -->
<g id="node8" class="node"><title>Node0x5604d830c870</title>
<polygon fill="none" stroke="black" points="120.5,-0.5 120.5,-36.5 208.5,-36.5 208.5,-0.5 120.5,-0.5"/>
<text text-anchor="middle" x="164.5" y="-14.8" font-family="Times,serif" font-size="14.00">DeclRefExpr</text>
</g>
<!-- Node0x5604d830c898&#45;&gt;Node0x5604d830c870 -->
<g id="edge6" class="edge"><title>Node0x5604d830c898&#45;&gt;Node0x5604d830c870</title>
<path fill="none" stroke="black" d="M164.5,-73.3129C164.5,-65.2895 164.5,-55.5475 164.5,-46.5691"/>
<polygon fill="black" stroke="black" points="168,-46.5288 164.5,-36.5288 161,-46.5289 168,-46.5288"/>
</g>
<!-- Node0x5604d830c8b0 -->
<g id="node9" class="node"><title>Node0x5604d830c8b0</title>
<polygon fill="none" stroke="black" points="242.5,-0.5 242.5,-36.5 330.5,-36.5 330.5,-0.5 242.5,-0.5"/>
<text text-anchor="middle" x="286.5" y="-14.8" font-family="Times,serif" font-size="14.00">DeclRefExpr</text>
</g>
<!-- Node0x5604d830c8d8&#45;&gt;Node0x5604d830c8b0 -->
<g id="edge7" class="edge"><title>Node0x5604d830c8d8&#45;&gt;Node0x5604d830c8b0</title>
<path fill="none" stroke="black" d="M286.5,-73.3129C286.5,-65.2895 286.5,-55.5475 286.5,-46.5691"/>
<polygon fill="black" stroke="black" points="290,-46.5288 286.5,-36.5288 283,-46.5289 290,-46.5288"/>
</g>
<!-- Node0x0 -->
<g id="node7" class="node"><title>Node0x0</title>
<polygon fill="none" stroke="black" points="182,-219.5 182,-255.5 251,-255.5 251,-219.5 182,-219.5"/>
<text text-anchor="middle" x="216.5" y="-233.8" font-family="Times,serif" font-size="14.00">&lt;NULL&gt;</text>
</g>
</g>
</svg>
