<?xml version="1.0" encoding="UTF-8" standalone="no"?>
<!DOCTYPE svg PUBLIC "-//W3C//DTD SVG 1.1//EN"
 "http://www.w3.org/Graphics/SVG/1.1/DTD/svg11.dtd">
<!-- Generated by graphviz version 2.38.0 (20140413.2041)
 -->
<!-- Title: unnamed Pages: 1 -->
<svg width="310pt" height="403pt"
 viewBox="0.00 0.00 310.00 403.00" xmlns="http://www.w3.org/2000/svg" xmlns:xlink="http://www.w3.org/1999/xlink">
<g id="graph0" class="graph" transform="scale(1 1) rotate(0) translate(4 399)">
<title>unnamed</title>
<polygon fill="white" stroke="none" points="-4,4 -4,-399 306,-399 306,4 -4,4"/>
<!-- Node0x561411d5b610 -->
<g id="node1" class="node"><title>Node0x561411d5b610</title>
<polygon fill="none" stroke="black" points="108.5,-82 108.5,-118 193.5,-118 193.5,-82 108.5,-82"/>
<text text-anchor="start" x="116.5" y="-96.3" font-family="Times,serif" font-size="14.00">[B0 (EXIT)]</text>
</g>
<!-- Node0x561411d5b6e8 -->
<g id="node2" class="node"><title>Node0x561411d5b6e8</title>
<polygon fill="none" stroke="black" points="138,-0.5 138,-36.5 192,-36.5 192,-0.5 138,-0.5"/>
<text text-anchor="start" x="146" y="-14.8" font-family="Times,serif" font-size="14.00">[B1]</text>
</g>
<!-- Node0x561411d5b898 -->
<g id="node3" class="node"><title>Node0x561411d5b898</title>
<polygon fill="none" stroke="black" points="0,-163.5 0,-231.5 302,-231.5 302,-163.5 0,-163.5"/>
<text text-anchor="start" x="8" y="-216.3" font-family="Times,serif" font-size="14.00">[B3]</text>
<text text-anchor="start" x="8" y="-201.3" font-family="Times,serif" font-size="14.00"> 1: i</text>
<text text-anchor="start" x="8" y="-186.3" font-family="Times,serif" font-size="14.00"> 2: [B3.1] (ImplicitCastExpr, LValueToRValue, int)</text>
<text text-anchor="start" x="8" y="-171.3" font-family="Times,serif" font-size="14.00"> T: while [B3.2]</text>
</g>
<!-- Node0x561411d5b6e8&#45;&gt;Node0x561411d5b898 -->
<g id="edge1" class="edge"><title>Node0x561411d5b6e8&#45;&gt;Node0x561411d5b898</title>
<path fill="none" stroke="black" d="M137.753,-33.6822C123.367,-42.7913 107.06,-56.0903 99,-73 88.6731,-94.6646 91.4237,-104.227 99,-127 102.281,-136.861 107.567,-146.452 113.541,-155.204"/>
<polygon fill="black" stroke="black" points="110.727,-157.285 119.436,-163.319 116.39,-153.171 110.727,-157.285"/>
</g>
<!-- Node0x561411d5b898&#45;&gt;Node0x561411d5b610 -->
<g id="edge4" class="edge"><title>Node0x561411d5b898&#45;&gt;Node0x561411d5b610</title>
<path fill="none" stroke="black" d="M151,-163.367C151,-151.973 151,-139.35 151,-128.458"/>
<polygon fill="black" stroke="black" points="154.5,-128.252 151,-118.252 147.5,-128.252 154.5,-128.252"/>
</g>
<!-- Node0x561411d5b7c0 -->
<g id="node4" class="node"><title>Node0x561411d5b7c0</title>
<polygon fill="none" stroke="black" points="211.5,-73.5 211.5,-126.5 290.5,-126.5 290.5,-73.5 211.5,-73.5"/>
<text text-anchor="start" x="219.5" y="-111.3" font-family="Times,serif" font-size="14.00">[B2]</text>
<text text-anchor="start" x="219.5" y="-96.3" font-family="Times,serif" font-size="14.00"> 1: i</text>
<text text-anchor="start" x="219.5" y="-81.3" font-family="Times,serif" font-size="14.00"> 2: [B2.1]&#45;&#45;</text>
</g>
<!-- Node0x561411d5b898&#45;&gt;Node0x561411d5b7c0 -->
<g id="edge3" class="edge"><title>Node0x561411d5b898&#45;&gt;Node0x561411d5b7c0</title>
<path fill="none" stroke="black" d="M185.695,-163.367C195.764,-153.751 206.75,-143.259 216.789,-133.671"/>
<polygon fill="black" stroke="black" points="219.436,-135.983 224.251,-126.545 214.602,-130.921 219.436,-135.983"/>
</g>
<!-- Node0x561411d5b7c0&#45;&gt;Node0x561411d5b6e8 -->
<g id="edge2" class="edge"><title>Node0x561411d5b7c0&#45;&gt;Node0x561411d5b6e8</title>
<path fill="none" stroke="black" d="M223.316,-73.4081C212.907,-63.7865 201.122,-52.892 190.884,-43.4275"/>
<polygon fill="black" stroke="black" points="193.124,-40.7316 183.405,-36.5136 188.372,-45.8718 193.124,-40.7316"/>
</g>
<!-- Node0x561411d5b990 -->
<g id="node5" class="node"><title>Node0x561411d5b990</title>
<polygon fill="none" stroke="black" points="109.5,-268.5 109.5,-321.5 192.5,-321.5 192.5,-268.5 109.5,-268.5"/>
<text text-anchor="start" x="117.5" y="-306.3" font-family="Times,serif" font-size="14.00">[B4]</text>
<text text-anchor="start" x="117.5" y="-291.3" font-family="Times,serif" font-size="14.00"> 1: 2</text>
<text text-anchor="start" x="117.5" y="-276.3" font-family="Times,serif" font-size="14.00"> 2: int i = 2;</text>
</g>
<!-- Node0x561411d5b990&#45;&gt;Node0x561411d5b898 -->
<g id="edge5" class="edge"><title>Node0x561411d5b990&#45;&gt;Node0x561411d5b898</title>
<path fill="none" stroke="black" d="M151,-268.408C151,-260.219 151,-250.912 151,-241.822"/>
<polygon fill="black" stroke="black" points="154.5,-241.721 151,-231.721 147.5,-241.721 154.5,-241.721"/>
</g>
<!-- Node0x561411d5ba88 -->
<g id="node6" class="node"><title>Node0x561411d5ba88</title>
<polygon fill="none" stroke="black" points="101.5,-358.5 101.5,-394.5 200.5,-394.5 200.5,-358.5 101.5,-358.5"/>
<text text-anchor="start" x="109.5" y="-372.8" font-family="Times,serif" font-size="14.00">[B5 (ENTRY)]</text>
</g>
<!-- Node0x561411d5ba88&#45;&gt;Node0x561411d5b990 -->
<g id="edge6" class="edge"><title>Node0x561411d5ba88&#45;&gt;Node0x561411d5b990</title>
<path fill="none" stroke="black" d="M151,-358.25C151,-350.486 151,-341.014 151,-331.825"/>
<polygon fill="black" stroke="black" points="154.5,-331.676 151,-321.676 147.5,-331.676 154.5,-331.676"/>
</g>
</g>
</svg>
